<svg xmlns:dc="http://purl.org/dc/elements/1.1/" xmlns:cc="http://creativecommons.org/ns#" xmlns:rdf="http://www.w3.org/1999/02/22-rdf-syntax-ns#" xmlns:svg="http://www.w3.org/2000/svg" xmlns="http://www.w3.org/2000/svg" xmlns:sodipodi="http://sodipodi.sourceforge.net/DTD/sodipodi-0.dtd" xmlns:inkscape="http://www.inkscape.org/namespaces/inkscape" id="svg5463" version="1.1" inkscape:version="0.91 r13725" sodipodi:docname="loblawsCR.svg" viewBox="0.25 0.25 38 37.21">
  <defs id="defs5465">
	
	
	
	
	
	
</defs>
  <sodipodi:namedview id="base" pagecolor="#ffffff" bordercolor="#666666" borderopacity="1.0" inkscape:pageopacity="0.0" inkscape:pageshadow="2" inkscape:zoom="4.2296044" inkscape:cx="106.984" inkscape:cy="18.6045" inkscape:document-units="px" inkscape:current-layer="layer1" showgrid="false" fit-margin-top="0" fit-margin-left="0" fit-margin-right="0" fit-margin-bottom="0" units="px" inkscape:window-width="1280" inkscape:window-height="744" inkscape:window-x="-4" inkscape:window-y="-4" inkscape:window-maximized="1"/>
  <metadata id="metadata5468">
    <rdf:RDF>
      <cc:Work rdf:about="">
        <dc:format>image/svg+xml</dc:format>
        <dc:type rdf:resource="http://purl.org/dc/dcmitype/StillImage"/>
        <dc:title/>
      </cc:Work>
    </rdf:RDF>
  </metadata>
  <g inkscape:label="Layer 1" inkscape:groupmode="layer" id="layer1" transform="translate(-1147.3017,-653.2577)">
    <path style="fill:#ff0000" inkscape:connector-curvature="0" d="m 1185.5557,674.6297 c 0,0 -8.485,0 -9.192,0 -13.522,0.266 -12.815,-11.224 -12.815,-11.224 l 0,-9.898 -15.997,0 0,15.865 c 0,2.209 2.077,21.344 21.962,21.344 11.843,0 16.042,0 16.042,0 l 0,-16.087" id="path5474"/>
    <path style="fill:#ff7f00" inkscape:connector-curvature="0" d="m 1165.2277,653.5077 0,8.837 c 0,0 -1.326,10.783 10.296,10.694 1.546,0 10.032,0 10.032,0 l 0,-6.981 -4.464,0 c 0,0 -8.617,1.104 -8.528,-5.524 0,-0.84 0,-7.026 0,-7.026 l -7.336,0" id="path5476"/>
    <path style="fill:#ff7f00" inkscape:connector-curvature="0" d="m 1174.4187,653.5077 0,5.877 c 0,0 -0.663,5.214 6.187,5.038 0.751,0 4.95,0 4.95,0 l 0,-5.17 -2.785,0 c 0,0 -3.358,0.22 -3.314,-3.535 0,-1.238 0,-2.21 0,-2.21 l -5.038,0" id="path5478"/>
    <path style="fill:#ff7f00" inkscape:connector-curvature="0" d="m 1181.3127,653.5077 4.243,0 0,4.11 c 0,0 -4.243,0.663 -4.243,-1.679 0,-1.768 0,-2.431 0,-2.431" id="path5480"/>
  </g>
</svg>