<?xml version="1.0" encoding="UTF-8" standalone="no"?>
<!-- Created with Inkscape (http://www.inkscape.org/) -->

<svg
   width="94.672859mm"
   height="93.618004mm"
   viewBox="0 0 94.67286 93.618004"
   version="1.1"
   id="svg5"
   sodipodi:docname="No Frills 2014 (Icon).svg"
   inkscape:version="1.1.2 (b8e25be833, 2022-02-05)"
   xmlns:inkscape="http://www.inkscape.org/namespaces/inkscape"
   xmlns:sodipodi="http://sodipodi.sourceforge.net/DTD/sodipodi-0.dtd"
   xmlns="http://www.w3.org/2000/svg"
   xmlns:svg="http://www.w3.org/2000/svg">
  <sodipodi:namedview
     id="namedview7"
     pagecolor="#ffffff"
     bordercolor="#666666"
     borderopacity="1.0"
     inkscape:pageshadow="2"
     inkscape:pageopacity="0.0"
     inkscape:pagecheckerboard="0"
     inkscape:document-units="mm"
     showgrid="false"
     inkscape:zoom="0.90583672"
     inkscape:cx="647.46768"
     inkscape:cy="224.1022"
     inkscape:window-width="1920"
     inkscape:window-height="1017"
     inkscape:window-x="-8"
     inkscape:window-y="-8"
     inkscape:window-maximized="1"
     inkscape:current-layer="layer1" />
  <defs
     id="defs2" />
  <g
     inkscape:label="Layer 1"
     inkscape:groupmode="layer"
     id="layer1"
     transform="translate(-34.060682,-68.213225)">
    <g
       fill="none"
       fill-rule="evenodd"
       id="g840"
       transform="matrix(4.1205108,0,0,4.1205108,32.725637,63.515843)">
      <path
         fill="#003da5"
         d="M 23.299,1.14 H 0.324 V 12.5 c 0,6.28 5.137,11.36 11.487,11.36 H 23.3 V 1.14 Z"
         id="path824" />
      <path
         fill="#da291c"
         d="m 16.625,9.42 1.941,-0.24 -0.445,2.28 0.728,0.52 -3.114,2.84 0.121,1.2 -2.831,-0.2 -0.04,0.76 0.04,2.72 -0.688,0.04 h -0.728 l 0.121,-2.8 V 15.82 L 8.818,16.06 9.02,14.82 5.865,12.06 6.512,11.42 6.027,8.94 8.09,9.38 8.494,8.5 l 1.861,1.76 -0.607,-3.88 1.376,0.4 1.254,-2.24 1.213,2.28 1.294,-0.4 -0.606,3.64 1.9,-1.56 z"
         id="path826" />
    </g>
  </g>
</svg>
