<?xml version="1.0" standalone="no"?>
<!DOCTYPE svg PUBLIC "-//W3C//DTD SVG 20010904//EN"
 "http://www.w3.org/TR/2001/REC-SVG-20010904/DTD/svg10.dtd">
<svg version="1.0" xmlns="http://www.w3.org/2000/svg"
 width="508.000000pt" height="508.000000pt" viewBox="0 0 508.000000 508.000000"
 preserveAspectRatio="xMidYMid meet">
<metadata>
Created by potrace 1.14, written by Peter Selinger 2001-2017
</metadata>
<g transform="translate(0.000000,508.000000) scale(0.100000,-0.100000)"
fill="#000000" stroke="none">
<path d="M2466 4587 c-19 -14 -20 -29 -21 -221 0 -167 -3 -208 -15 -220 -8 -7
-44 -16 -80 -19 -36 -3 -96 -15 -133 -27 -67 -21 -208 -89 -237 -115 -8 -7
-51 -27 -95 -43 -338 -124 -602 -356 -767 -673 -44 -85 -110 -267 -122 -334
l-5 -30 398 0 397 0 53 -53 c59 -58 108 -94 196 -142 33 -18 64 -36 68 -40 5
-4 -174 -7 -398 -7 -313 0 -411 -3 -430 -13 -48 -26 -53 -55 -52 -319 l0 -244
32 -35 32 -35 171 1 172 0 0 -24 c0 -27 -30 -186 -37 -194 -2 -3 -134 -5 -291
-5 -158 0 -293 -4 -299 -8 -7 -5 -13 -24 -13 -44 0 -125 144 -220 435 -288
109 -25 166 -35 290 -49 111 -13 134 -19 239 -63 156 -65 239 -88 361 -99 106
-9 125 -14 126 -32 1 -9 3 -132 4 -272 1 -140 3 -258 4 -263 0 -4 10 -16 21
-27 30 -30 103 -28 135 5 l25 24 0 258 c0 142 3 268 6 280 5 17 16 23 53 28
91 13 234 56 312 94 63 31 94 40 156 46 72 5 111 9 203 20 49 6 112 15 135 19
11 2 40 7 65 11 85 12 272 66 338 96 75 34 146 88 173 133 21 35 25 109 7 123
-8 5 -145 9 -325 9 -274 -1 -310 1 -304 14 10 19 37 123 45 171 l6 35 142 1
c224 2 218 -7 218 325 0 223 -2 246 -20 275 -25 42 -51 46 -285 46 l-190 0
-64 69 c-35 38 -94 90 -130 115 -36 26 -69 49 -73 52 -4 4 212 6 480 5 268 0
493 2 500 4 32 11 -61 277 -149 426 -142 239 -340 425 -579 541 -52 25 -108
53 -125 62 -211 113 -317 153 -467 178 -139 22 -128 2 -128 238 0 156 -3 208
-14 222 -18 25 -122 33 -150 12z m-20 -2672 c0 -55 -1 -105 -3 -110 -2 -7 -97
-10 -268 -10 -252 0 -265 1 -279 20 -15 20 -53 129 -61 176 l-5 26 308 -1 307
-1 1 -100z m709 55 c1 -58 -13 -151 -25 -165 -5 -7 -90 -10 -247 -9 -131 1
-241 2 -245 3 -5 0 -8 50 -8 110 l0 108 262 -1 262 -1 1 -45z"/>
</g>
</svg>
